# xmcd
#
# Track frame offsets:
#	150
#	12948
#	26425
#	39589
#	54426
#	70749
#	81121
#	93027
#	103504
#	113709
#	123604
#	136365
#	149541
#	164113
#	176015
#	189563
#	199515
#	211619
#
# Disc length: 3010 seconds
#
# Revision: 2
# Processed by: cddbd v1.5.2PL0 Copyright (c) Steve Scherf et al.
# Submitted via: EasyCDDAExtractor 12.0.1.1
#
DISCID=f40bc012
DTITLE=Various Artist - The Ultimate Ballroom Album 9 CD2
DYEAR=2006
DGENRE=Ballroom Dance
TTITLE0=Andy Williams - EW 29 - Dear Heart
TTITLE1=Dinah Washington - EW 29 - Look To the Rainbow
TTITLE2=Jerry Vale - EW 29 - Pretend You Don't See Her
TTITLE3=Eydie Gormé - EW 29 - Hello Young Lovers
TTITLE4=Acker Bilk - EW 29 - Scarlet Ribbons
TTITLE5=Pat Boone - EW 29 - Tammy
TTITLE6=Connie Francis - EW 29 - Together
TTITLE7=Sarah Vaughan - EW 29 - Passing Strangers
TTITLE8=Dean Martin - EW 29 - Viene Su
TTITLE9=Julie London - EW 29 - Saddle the Wind
TTITLE10=Dean Martin - WW 59 - Bella Bimba
TTITLE11=Dean Martin - WW 59 - Peddlers Serenade
TTITLE12=Orch El Choclo - TG 31 - Historia Un Amor
TTITLE13=Orch El Choclo - TG 31 - Bonboncito
TTITLE14=Orch Sentimentia - TG 31 - Sentimentia Callo
TTITLE15=Orch Sentimentia - TG 31 - Hasta Siembre
TTITLE16=Orch Tanguerra - TG 31 - Liebestraum
TTITLE17=Orch Tanguerra - TG 31 - Fur Elise
EXTD=
EXTT0=
EXTT1=
EXTT2=
EXTT3=
EXTT4=
EXTT5=
EXTT6=
EXTT7=
EXTT8=
EXTT9=
EXTT10=
EXTT11=
EXTT12=
EXTT13=
EXTT14=
EXTT15=
EXTT16=
EXTT17=
PLAYORDER=
